<svg width="120" height="36" viewBox="0 0 120 36" fill="none" xmlns="http://www.w3.org/2000/svg">
<path d="M9.432 26.168C7.864 26.168 6.424 25.8 5.112 25.064C3.8 24.328 2.76 23.312 1.992 22.016C1.224 20.704 0.84 19.224 0.84 17.576C0.84 15.944 1.224 14.48 1.992 13.184C2.76 11.872 3.8 10.848 5.112 10.112C6.424 9.376 7.864 9.008 9.432 9.008C11.016 9.008 12.456 9.376 13.752 10.112C15.064 10.848 16.096 11.872 16.848 13.184C17.616 14.48 18 15.944 18 17.576C18 19.224 17.616 20.704 16.848 22.016C16.096 23.312 15.064 24.328 13.752 25.064C12.44 25.8 11 26.168 9.432 26.168ZM9.432 23.168C10.44 23.168 11.328 22.944 12.096 22.496C12.864 22.032 13.464 21.376 13.896 20.528C14.328 19.68 14.544 18.696 14.544 17.576C14.544 16.456 14.328 15.48 13.896 14.648C13.464 13.8 12.864 13.152 12.096 12.704C11.328 12.256 10.44 12.032 9.432 12.032C8.424 12.032 7.528 12.256 6.744 12.704C5.976 13.152 5.376 13.8 4.944 14.648C4.512 15.48 4.296 16.456 4.296 17.576C4.296 18.696 4.512 19.68 4.944 20.528C5.376 21.376 5.976 22.032 6.744 22.496C7.528 22.944 8.424 23.168 9.432 23.168ZM25.5878 26.216C24.4998 26.216 23.5238 26.024 22.6598 25.64C21.7958 25.24 21.1078 24.704 20.5958 24.032C20.0998 23.36 19.8278 22.616 19.7798 21.8H23.1638C23.2278 22.312 23.4758 22.736 23.9078 23.072C24.3558 23.408 24.9078 23.576 25.5638 23.576C26.2038 23.576 26.6998 23.448 27.0518 23.192C27.4198 22.936 27.6038 22.608 27.6038 22.208C27.6038 21.776 27.3798 21.456 26.9318 21.248C26.4998 21.024 25.8038 20.784 24.8438 20.528C23.8518 20.288 23.0358 20.04 22.3958 19.784C21.7718 19.528 21.2278 19.136 20.7638 18.608C20.3158 18.08 20.0918 17.368 20.0918 16.472C20.0918 15.736 20.2998 15.064 20.7158 14.456C21.1478 13.848 21.7558 13.368 22.5398 13.016C23.3398 12.664 24.2758 12.488 25.3478 12.488C26.9318 12.488 28.1958 12.888 29.1398 13.688C30.0838 14.472 30.6038 15.536 30.6998 16.88H27.4838C27.4358 16.352 27.2118 15.936 26.8118 15.632C26.4278 15.312 25.9078 15.152 25.2518 15.152C24.6438 15.152 24.1718 15.264 23.8358 15.488C23.5158 15.712 23.3558 16.024 23.3558 16.424C23.3558 16.872 23.5798 17.216 24.0278 17.456C24.4758 17.68 25.1718 17.912 26.1158 18.152C27.0758 18.392 27.8678 18.64 28.4918 18.896C29.1158 19.152 29.6518 19.552 30.0998 20.096C30.5638 20.624 30.8038 21.328 30.8198 22.208C30.8198 22.976 30.6038 23.664 30.1718 24.272C29.7558 24.88 29.1478 25.36 28.3478 25.712C27.5638 26.048 26.6438 26.216 25.5878 26.216ZM36.9379 8.24V26H33.5779V8.24H36.9379ZM46.1616 26.216C44.8816 26.216 43.7296 25.936 42.7056 25.376C41.6816 24.8 40.8736 23.992 40.2816 22.952C39.7056 21.912 39.4176 20.712 39.4176 19.352C39.4176 17.992 39.7136 16.792 40.3056 15.752C40.9136 14.712 41.7376 13.912 42.7776 13.352C43.8176 12.776 44.9776 12.488 46.2576 12.488C47.5376 12.488 48.6976 12.776 49.7376 13.352C50.7776 13.912 51.5936 14.712 52.1856 15.752C52.7936 16.792 53.0976 17.992 53.0976 19.352C53.0976 20.712 52.7856 21.912 52.1616 22.952C51.5536 23.992 50.7216 24.8 49.6656 25.376C48.6256 25.936 47.4576 26.216 46.1616 26.216ZM46.1616 23.288C46.7696 23.288 47.3376 23.144 47.8656 22.856C48.4096 22.552 48.8416 22.104 49.1616 21.512C49.4816 20.92 49.6416 20.2 49.6416 19.352C49.6416 18.088 49.3056 17.12 48.6336 16.448C47.9776 15.76 47.1696 15.416 46.2096 15.416C45.2496 15.416 44.4416 15.76 43.7856 16.448C43.1456 17.12 42.8256 18.088 42.8256 19.352C42.8256 20.616 43.1376 21.592 43.7616 22.28C44.4016 22.952 45.2016 23.288 46.1616 23.288ZM71.553 22.808H64.881L63.777 26H60.249L66.273 9.224H70.185L76.209 26H72.657L71.553 22.808ZM70.641 20.12L68.217 13.112L65.793 20.12H70.641ZM81.8207 9.248V26H78.4607V9.248H81.8207Z" fill="#413F5A"/>
<path d="M106.747 6.87661C107.173 5.7078 108.827 5.7078 109.253 6.87661L111.251 12.3601C111.656 13.4696 112.53 14.3436 113.64 14.7488L119.123 16.7468C120.292 17.1729 120.292 18.8271 119.123 19.2532L113.64 21.2512C112.53 21.6564 111.656 22.5305 111.251 23.6399L109.253 29.1234C108.827 30.2922 107.173 30.2922 106.747 29.1234L104.749 23.6399C104.344 22.5304 103.47 21.6564 102.36 21.2512L96.8766 19.2532C95.7078 18.8271 95.7078 17.1729 96.8766 16.7468L102.36 14.7488C103.47 14.3436 104.344 13.4695 104.749 12.3601L106.747 6.87661Z" fill="#7280F5"/>
</svg>
