<svg width="24" height="24" viewBox="0 0 24 24" fill="none" xmlns="http://www.w3.org/2000/svg">
<path d="M10.7468 0.876609C11.1729 -0.292203 12.8271 -0.292203 13.2532 0.876609L15.2512 6.36011C15.6564 7.46956 16.5305 8.34356 17.6399 8.74878L23.1234 10.7468C24.2922 11.1729 24.2922 12.8271 23.1234 13.2532L17.6399 15.2512C16.5304 15.6564 15.6564 16.5305 15.2512 17.6399L13.2532 23.1234C12.8271 24.2922 11.1729 24.2922 10.7468 23.1234L8.74878 17.6399C8.34356 16.5304 7.46953 15.6564 6.36011 15.2512L0.876609 13.2532C-0.292203 12.8271 -0.292203 11.1729 0.876609 10.7468L6.36011 8.74878C7.46956 8.34356 8.34356 7.46953 8.74878 6.36011L10.7468 0.876609Z" fill="#7280F5"/>
</svg>
